<svg xmlns="http://www.w3.org/2000/svg" viewBox="0 0 320 320" width="320" height="320" preserveAspectRatio="xMidYMid slice">
<defs>
<linearGradient id="sky" x1="0" y1="0" x2="1" y2="1"><stop offset="0" stop-color="#05070c"/><stop offset="1" stop-color="#0c1a2b"/></linearGradient>
<radialGradient id="pl" cx="0.35" cy="0.3" r="0.9"><stop offset="0" stop-color="#9cc9ff" stop-opacity="0.85"/><stop offset="0.55" stop-color="#4a90d9" stop-opacity="0.55"/><stop offset="1" stop-color="#0c1a2b"/></radialGradient>
</defs>
<rect width="320" height="320" fill="url(#sky)"/>
<circle cx="128.7" cy="237.2" r="1.3" fill="#fff" fill-opacity="0.7"/><circle cx="310" cy="211.2" r="0.8" fill="#fff" fill-opacity="0.8"/><circle cx="121.9" cy="190.5" r="1.4" fill="#fff" fill-opacity="0.4"/><circle cx="196" cy="90.6" r="0.8" fill="#fff" fill-opacity="0.3"/><circle cx="51.6" cy="8.2" r="1" fill="#fff" fill-opacity="0.4"/><circle cx="265.2" cy="312.9" r="0.6" fill="#fff" fill-opacity="0.8"/><circle cx="311.5" cy="9.7" r="1.1" fill="#fff" fill-opacity="0.7"/><circle cx="72.5" cy="223.6" r="1" fill="#fff" fill-opacity="0.5"/><circle cx="49.1" cy="231" r="1.4" fill="#fff" fill-opacity="0.8"/><circle cx="85" cy="153.6" r="1.5" fill="#fff" fill-opacity="0.3"/><circle cx="270.1" cy="298.6" r="1.2" fill="#fff" fill-opacity="0.8"/><circle cx="127.9" cy="146" r="0.9" fill="#fff" fill-opacity="0.3"/><circle cx="98.2" cy="26.5" r="1.1" fill="#fff" fill-opacity="0.3"/><circle cx="164" cy="76.9" r="0.6" fill="#fff" fill-opacity="0.5"/><circle cx="268.6" cy="110.4" r="1.4" fill="#fff" fill-opacity="0.4"/><circle cx="206.3" cy="229.7" r="1.3" fill="#fff" fill-opacity="0.6"/><circle cx="241.9" cy="294.6" r="0.9" fill="#fff" fill-opacity="0.5"/><circle cx="68.6" cy="12.7" r="1.6" fill="#fff" fill-opacity="0.6"/><circle cx="272.8" cy="196.4" r="1.3" fill="#fff" fill-opacity="0.7"/><circle cx="308.7" cy="211.7" r="1.2" fill="#fff" fill-opacity="0.7"/><circle cx="297.9" cy="20.7" r="1.6" fill="#fff" fill-opacity="0.6"/><circle cx="153" cy="211.1" r="1.3" fill="#fff" fill-opacity="0.7"/><circle cx="29.9" cy="92" r="1" fill="#fff" fill-opacity="0.7"/><circle cx="273.3" cy="310.5" r="1.4" fill="#fff" fill-opacity="0.8"/><circle cx="173.6" cy="97.2" r="0.8" fill="#fff" fill-opacity="0.8"/><circle cx="38.1" cy="229.3" r="1.1" fill="#fff" fill-opacity="0.6"/><circle cx="218.9" cy="180.3" r="0.8" fill="#fff" fill-opacity="0.8"/><circle cx="277.1" cy="271.2" r="1.7" fill="#fff" fill-opacity="0.4"/><circle cx="282.8" cy="280.3" r="1.5" fill="#fff" fill-opacity="0.3"/><circle cx="240.4" cy="66.1" r="1.1" fill="#fff" fill-opacity="0.6"/><circle cx="247.1" cy="311.8" r="1.6" fill="#fff" fill-opacity="0.8"/><circle cx="237.3" cy="319" r="1" fill="#fff" fill-opacity="0.6"/><circle cx="215.5" cy="91.7" r="0.7" fill="#fff" fill-opacity="0.4"/><circle cx="279.4" cy="317.1" r="1.3" fill="#fff" fill-opacity="0.6"/><circle cx="257.1" cy="307.8" r="1" fill="#fff" fill-opacity="0.6"/><circle cx="311.9" cy="47" r="0.5" fill="#fff" fill-opacity="0.8"/><circle cx="311.8" cy="210.9" r="0.6" fill="#fff" fill-opacity="0.4"/><circle cx="255.7" cy="118.8" r="1.1" fill="#fff" fill-opacity="0.8"/><circle cx="218.6" cy="17.2" r="1.1" fill="#fff" fill-opacity="0.3"/>
<circle cx="230.4" cy="230.4" r="134.4" fill="url(#pl)"/>
<circle cx="140.8" cy="147.2" r="83.2" fill="none" stroke="#9cc9ff" stroke-width="11.2"/><circle cx="140.8" cy="147.2" r="28.8" fill="#4a90d9" stroke="#9cc9ff" stroke-width="3.8"/><line x1="169.6" y1="147.2" x2="224" y2="147.2" stroke="#9cc9ff" stroke-width="3.8"/><rect x="227.8" y="141.4" width="11.5" height="11.5" fill="#9cc9ff"/><line x1="155.2" y1="172.1" x2="182.4" y2="219.3" stroke="#9cc9ff" stroke-width="3.8"/><rect x="181.4" y="221.8" width="11.5" height="11.5" fill="#9cc9ff"/><line x1="126.4" y1="172.1" x2="99.2" y2="219.3" stroke="#9cc9ff" stroke-width="3.8"/><rect x="88.6" y="221.8" width="11.5" height="11.5" fill="#9cc9ff"/><line x1="112" y1="147.2" x2="57.6" y2="147.2" stroke="#9cc9ff" stroke-width="3.8"/><rect x="42.2" y="141.4" width="11.5" height="11.5" fill="#9cc9ff"/><line x1="126.4" y1="122.3" x2="99.2" y2="75.1" stroke="#9cc9ff" stroke-width="3.8"/><rect x="88.6" y="61.1" width="11.5" height="11.5" fill="#9cc9ff"/><line x1="155.2" y1="122.3" x2="182.4" y2="75.1" stroke="#9cc9ff" stroke-width="3.8"/><rect x="181.4" y="61.1" width="11.5" height="11.5" fill="#9cc9ff"/>
</svg>
