<svg xmlns="http://www.w3.org/2000/svg" viewBox="0 0 1200 300" width="1200" height="300" preserveAspectRatio="xMidYMid slice">
<defs>
<linearGradient id="sky" x1="0" y1="0" x2="1" y2="1"><stop offset="0" stop-color="#05070c"/><stop offset="1" stop-color="#2a2108"/></linearGradient>
<radialGradient id="pl" cx="0.35" cy="0.3" r="0.9"><stop offset="0" stop-color="#ffe08a" stop-opacity="0.85"/><stop offset="0.55" stop-color="#e3b341" stop-opacity="0.55"/><stop offset="1" stop-color="#2a2108"/></radialGradient>
</defs>
<rect width="1200" height="300" fill="url(#sky)"/>
<circle cx="569.2" cy="148.1" r="1.1" fill="#fff" fill-opacity="0.4"/><circle cx="362.6" cy="262.3" r="1.3" fill="#fff" fill-opacity="0.8"/><circle cx="553.6" cy="99.7" r="1.5" fill="#fff" fill-opacity="0.5"/><circle cx="1115.5" cy="99.9" r="1.5" fill="#fff" fill-opacity="0.5"/><circle cx="595.3" cy="74.9" r="0.8" fill="#fff" fill-opacity="0.7"/><circle cx="737" cy="270.4" r="0.6" fill="#fff" fill-opacity="0.3"/><circle cx="21.5" cy="268.9" r="1.1" fill="#fff" fill-opacity="0.5"/><circle cx="877.5" cy="215.8" r="1.2" fill="#fff" fill-opacity="0.3"/><circle cx="50" cy="214.1" r="1.1" fill="#fff" fill-opacity="0.3"/><circle cx="529.9" cy="170.4" r="1.4" fill="#fff" fill-opacity="0.6"/><circle cx="623.5" cy="125.3" r="1.2" fill="#fff" fill-opacity="0.7"/><circle cx="1005.6" cy="254.7" r="0.8" fill="#fff" fill-opacity="0.3"/><circle cx="703.6" cy="236.9" r="1.5" fill="#fff" fill-opacity="0.7"/><circle cx="228.9" cy="3" r="0.8" fill="#fff" fill-opacity="0.7"/><circle cx="1128.7" cy="245.4" r="0.6" fill="#fff" fill-opacity="0.6"/><circle cx="85.3" cy="193.3" r="1.2" fill="#fff" fill-opacity="0.7"/><circle cx="204.8" cy="43" r="1.5" fill="#fff" fill-opacity="0.3"/><circle cx="963.3" cy="9" r="1.4" fill="#fff" fill-opacity="0.4"/><circle cx="1133.4" cy="156.5" r="0.7" fill="#fff" fill-opacity="0.7"/><circle cx="658.4" cy="179.7" r="0.8" fill="#fff" fill-opacity="0.8"/><circle cx="1141.6" cy="202.9" r="1.3" fill="#fff" fill-opacity="0.5"/><circle cx="896.3" cy="4.1" r="1.5" fill="#fff" fill-opacity="0.3"/><circle cx="72.7" cy="108.4" r="1.1" fill="#fff" fill-opacity="0.6"/><circle cx="1005.6" cy="99.8" r="0.9" fill="#fff" fill-opacity="0.5"/><circle cx="434.1" cy="89.9" r="0.8" fill="#fff" fill-opacity="0.8"/><circle cx="435.7" cy="44.8" r="1.3" fill="#fff" fill-opacity="0.6"/><circle cx="561.9" cy="196.1" r="0.6" fill="#fff" fill-opacity="0.5"/><circle cx="46" cy="134" r="1.3" fill="#fff" fill-opacity="0.5"/><circle cx="505.6" cy="77.7" r="1.4" fill="#fff" fill-opacity="0.4"/><circle cx="343.4" cy="222.7" r="1" fill="#fff" fill-opacity="0.7"/><circle cx="309.5" cy="271.9" r="1.6" fill="#fff" fill-opacity="0.8"/><circle cx="568" cy="264.1" r="0.6" fill="#fff" fill-opacity="0.3"/><circle cx="1033.8" cy="290.4" r="1.1" fill="#fff" fill-opacity="0.4"/><circle cx="890.8" cy="14.9" r="0.5" fill="#fff" fill-opacity="0.4"/><circle cx="127.8" cy="52.7" r="1.5" fill="#fff" fill-opacity="0.6"/><circle cx="490.4" cy="253.7" r="1.7" fill="#fff" fill-opacity="0.3"/><circle cx="549.4" cy="248.1" r="0.5" fill="#fff" fill-opacity="0.7"/><circle cx="1096.5" cy="166.6" r="1.5" fill="#fff" fill-opacity="0.3"/><circle cx="1110.3" cy="231.3" r="1.6" fill="#fff" fill-opacity="0.3"/><circle cx="1181.9" cy="55.6" r="0.9" fill="#fff" fill-opacity="0.4"/><circle cx="675" cy="83.9" r="1" fill="#fff" fill-opacity="0.3"/><circle cx="367.7" cy="187.7" r="1.3" fill="#fff" fill-opacity="0.3"/><circle cx="314.4" cy="93.7" r="1.6" fill="#fff" fill-opacity="0.3"/><circle cx="151.3" cy="264" r="0.5" fill="#fff" fill-opacity="0.6"/><circle cx="887.4" cy="193.9" r="1.5" fill="#fff" fill-opacity="0.3"/><circle cx="458.1" cy="214" r="1.7" fill="#fff" fill-opacity="0.3"/><circle cx="1023.1" cy="279.3" r="0.8" fill="#fff" fill-opacity="0.4"/><circle cx="450.1" cy="187.4" r="1.4" fill="#fff" fill-opacity="0.3"/><circle cx="1078.9" cy="34.9" r="1.2" fill="#fff" fill-opacity="0.6"/><circle cx="893.4" cy="84.8" r="1.4" fill="#fff" fill-opacity="0.7"/><circle cx="536.8" cy="48.7" r="0.9" fill="#fff" fill-opacity="0.5"/><circle cx="689.3" cy="48" r="1.4" fill="#fff" fill-opacity="0.4"/><circle cx="1145.4" cy="142.5" r="1.1" fill="#fff" fill-opacity="0.8"/><circle cx="126.2" cy="50.2" r="0.7" fill="#fff" fill-opacity="0.6"/><circle cx="310.7" cy="170.6" r="1" fill="#fff" fill-opacity="0.4"/><circle cx="325.6" cy="231.5" r="1.7" fill="#fff" fill-opacity="0.4"/><circle cx="1042.6" cy="186.3" r="1.1" fill="#fff" fill-opacity="0.4"/><circle cx="1098.9" cy="6.3" r="1.6" fill="#fff" fill-opacity="0.7"/><circle cx="1064.9" cy="20.3" r="0.5" fill="#fff" fill-opacity="0.3"/><circle cx="595.2" cy="87.3" r="1" fill="#fff" fill-opacity="0.4"/><circle cx="475" cy="166.5" r="1" fill="#fff" fill-opacity="0.4"/><circle cx="83.7" cy="145" r="0.8" fill="#fff" fill-opacity="0.5"/><circle cx="122.6" cy="59.9" r="0.5" fill="#fff" fill-opacity="0.8"/><circle cx="377.9" cy="215.2" r="0.7" fill="#fff" fill-opacity="0.6"/><circle cx="306.9" cy="18.1" r="1.5" fill="#fff" fill-opacity="0.5"/><circle cx="887.6" cy="157.2" r="1.2" fill="#fff" fill-opacity="0.3"/><circle cx="622.2" cy="198.7" r="1.4" fill="#fff" fill-opacity="0.7"/><circle cx="592.1" cy="56.9" r="1.2" fill="#fff" fill-opacity="0.6"/><circle cx="424.5" cy="146.9" r="0.9" fill="#fff" fill-opacity="0.8"/><circle cx="558.6" cy="10.5" r="1.1" fill="#fff" fill-opacity="0.5"/><circle cx="1038.5" cy="140" r="0.8" fill="#fff" fill-opacity="0.3"/><circle cx="517.7" cy="98" r="1.6" fill="#fff" fill-opacity="0.3"/><circle cx="338.6" cy="240.9" r="0.5" fill="#fff" fill-opacity="0.8"/><circle cx="379.4" cy="1.1" r="0.8" fill="#fff" fill-opacity="0.4"/><circle cx="176.6" cy="218.1" r="0.6" fill="#fff" fill-opacity="0.7"/><circle cx="848.4" cy="219.6" r="1" fill="#fff" fill-opacity="0.8"/><circle cx="723.3" cy="270.1" r="1.6" fill="#fff" fill-opacity="0.5"/><circle cx="550" cy="45.8" r="0.8" fill="#fff" fill-opacity="0.5"/><circle cx="208.3" cy="204.7" r="1.6" fill="#fff" fill-opacity="0.5"/><circle cx="673.1" cy="0.1" r="1" fill="#fff" fill-opacity="0.6"/><circle cx="682.5" cy="107.4" r="1.2" fill="#fff" fill-opacity="0.8"/><circle cx="942.2" cy="132.9" r="0.8" fill="#fff" fill-opacity="0.3"/><circle cx="618.4" cy="59.5" r="0.8" fill="#fff" fill-opacity="0.7"/><circle cx="62" cy="62.9" r="0.7" fill="#fff" fill-opacity="0.5"/><circle cx="483.7" cy="255.6" r="1.4" fill="#fff" fill-opacity="0.7"/><circle cx="995.5" cy="163.1" r="1.3" fill="#fff" fill-opacity="0.4"/><circle cx="888.8" cy="21.9" r="1.1" fill="#fff" fill-opacity="0.5"/><circle cx="751.4" cy="296.1" r="0.9" fill="#fff" fill-opacity="0.6"/><circle cx="530.1" cy="9.1" r="1.4" fill="#fff" fill-opacity="0.3"/><circle cx="915.1" cy="238.2" r="0.9" fill="#fff" fill-opacity="0.3"/><circle cx="605.4" cy="273.9" r="1.4" fill="#fff" fill-opacity="0.6"/><circle cx="322.2" cy="236.2" r="1.4" fill="#fff" fill-opacity="0.5"/><circle cx="1008.6" cy="278.1" r="0.8" fill="#fff" fill-opacity="0.5"/><circle cx="1008.4" cy="222.7" r="1.6" fill="#fff" fill-opacity="0.8"/><circle cx="887.9" cy="52.5" r="1.1" fill="#fff" fill-opacity="0.6"/><circle cx="178.3" cy="184" r="1.3" fill="#fff" fill-opacity="0.4"/><circle cx="1058.6" cy="226.7" r="1" fill="#fff" fill-opacity="0.7"/><circle cx="555.5" cy="245.9" r="1.2" fill="#fff" fill-opacity="0.3"/><circle cx="415.3" cy="48.5" r="1.6" fill="#fff" fill-opacity="0.6"/><circle cx="499.5" cy="224.6" r="0.9" fill="#fff" fill-opacity="0.3"/><circle cx="1150.6" cy="248.3" r="0.9" fill="#fff" fill-opacity="0.7"/><circle cx="470.6" cy="114.3" r="1.2" fill="#fff" fill-opacity="0.6"/><circle cx="1002.3" cy="254.6" r="1.5" fill="#fff" fill-opacity="0.5"/><circle cx="469.2" cy="64" r="0.8" fill="#fff" fill-opacity="0.5"/><circle cx="788" cy="107.8" r="1.3" fill="#fff" fill-opacity="0.5"/><circle cx="567.7" cy="85.7" r="0.7" fill="#fff" fill-opacity="0.5"/><circle cx="172.5" cy="199.3" r="0.6" fill="#fff" fill-opacity="0.3"/><circle cx="824.5" cy="14.4" r="1.2" fill="#fff" fill-opacity="0.4"/><circle cx="952.5" cy="162.5" r="1" fill="#fff" fill-opacity="0.6"/><circle cx="292.7" cy="95.2" r="0.9" fill="#fff" fill-opacity="0.5"/><circle cx="848.2" cy="29.7" r="0.7" fill="#fff" fill-opacity="0.7"/><circle cx="224.6" cy="93.2" r="0.7" fill="#fff" fill-opacity="0.8"/><circle cx="484.2" cy="161.6" r="1.2" fill="#fff" fill-opacity="0.6"/><circle cx="1112.8" cy="228.7" r="0.9" fill="#fff" fill-opacity="0.6"/><circle cx="1025.3" cy="20.5" r="0.8" fill="#fff" fill-opacity="0.5"/><circle cx="21.8" cy="263" r="1.3" fill="#fff" fill-opacity="0.6"/><circle cx="90.8" cy="184.5" r="0.5" fill="#fff" fill-opacity="0.6"/><circle cx="499.9" cy="221" r="1.6" fill="#fff" fill-opacity="0.8"/><circle cx="1087" cy="191.2" r="1.6" fill="#fff" fill-opacity="0.6"/><circle cx="329.1" cy="20.3" r="0.9" fill="#fff" fill-opacity="0.6"/><circle cx="471.8" cy="101.9" r="0.9" fill="#fff" fill-opacity="0.7"/><circle cx="39.7" cy="138" r="0.8" fill="#fff" fill-opacity="0.7"/><circle cx="962" cy="290.9" r="1.4" fill="#fff" fill-opacity="0.6"/><circle cx="183.5" cy="121.5" r="1.6" fill="#fff" fill-opacity="0.3"/><circle cx="442.8" cy="78.3" r="1.7" fill="#fff" fill-opacity="0.7"/><circle cx="592.2" cy="3.8" r="1.1" fill="#fff" fill-opacity="0.5"/><circle cx="998.1" cy="74.8" r="1.6" fill="#fff" fill-opacity="0.6"/><circle cx="325.7" cy="223.6" r="1.5" fill="#fff" fill-opacity="0.4"/><circle cx="848.6" cy="21.3" r="1.3" fill="#fff" fill-opacity="0.7"/><circle cx="554.1" cy="171.4" r="0.5" fill="#fff" fill-opacity="0.6"/><circle cx="742.8" cy="274.3" r="1.5" fill="#fff" fill-opacity="0.7"/><circle cx="399" cy="26.1" r="1.5" fill="#fff" fill-opacity="0.8"/><circle cx="779.8" cy="28.8" r="0.6" fill="#fff" fill-opacity="0.7"/><circle cx="304.8" cy="182.3" r="0.6" fill="#fff" fill-opacity="0.4"/><circle cx="409.5" cy="294.7" r="1.2" fill="#fff" fill-opacity="0.8"/><circle cx="1007.1" cy="78.3" r="1.2" fill="#fff" fill-opacity="0.7"/><circle cx="178.3" cy="259" r="1.6" fill="#fff" fill-opacity="0.3"/><circle cx="1069.7" cy="265.2" r="1.4" fill="#fff" fill-opacity="0.7"/>
<circle cx="960" cy="216" r="126" fill="url(#pl)"/>
<path d="M432,114 Q504,204 576,114" fill="none" stroke="#ffe08a" stroke-width="9"/><line x1="504" y1="162" x2="504" y2="228" stroke="#ffe08a" stroke-width="9"/><line x1="504" y1="132" x2="534" y2="60" stroke="#ffe08a" stroke-width="3.6"/><circle cx="534" cy="60" r="6" fill="#ffe08a"/>
</svg>
