<svg xmlns="http://www.w3.org/2000/svg" viewBox="0 0 320 320" width="320" height="320" preserveAspectRatio="xMidYMid slice">
<defs>
<linearGradient id="sky" x1="0" y1="0" x2="1" y2="1"><stop offset="0" stop-color="#05070c"/><stop offset="1" stop-color="#2a2108"/></linearGradient>
<radialGradient id="pl" cx="0.35" cy="0.3" r="0.9"><stop offset="0" stop-color="#ffe08a" stop-opacity="0.85"/><stop offset="0.55" stop-color="#e3b341" stop-opacity="0.55"/><stop offset="1" stop-color="#2a2108"/></radialGradient>
</defs>
<rect width="320" height="320" fill="url(#sky)"/>
<circle cx="187.4" cy="319.8" r="1.4" fill="#fff" fill-opacity="0.7"/><circle cx="188" cy="162.7" r="1.7" fill="#fff" fill-opacity="0.3"/><circle cx="46.5" cy="171.5" r="0.8" fill="#fff" fill-opacity="0.5"/><circle cx="110.8" cy="276.5" r="0.7" fill="#fff" fill-opacity="0.8"/><circle cx="108.1" cy="179.7" r="1.3" fill="#fff" fill-opacity="0.8"/><circle cx="105.6" cy="287.8" r="1" fill="#fff" fill-opacity="0.7"/><circle cx="15.6" cy="219.2" r="1" fill="#fff" fill-opacity="0.8"/><circle cx="51.9" cy="178" r="1.7" fill="#fff" fill-opacity="0.8"/><circle cx="151" cy="119.1" r="1" fill="#fff" fill-opacity="0.7"/><circle cx="284" cy="23.2" r="1.4" fill="#fff" fill-opacity="0.3"/><circle cx="42.8" cy="200.5" r="1" fill="#fff" fill-opacity="0.5"/><circle cx="239.3" cy="19.5" r="1.2" fill="#fff" fill-opacity="0.4"/><circle cx="314.2" cy="172.3" r="1.2" fill="#fff" fill-opacity="0.8"/><circle cx="277.9" cy="190.1" r="0.8" fill="#fff" fill-opacity="0.3"/><circle cx="176.2" cy="112.3" r="0.9" fill="#fff" fill-opacity="0.6"/><circle cx="199.5" cy="297.6" r="0.5" fill="#fff" fill-opacity="0.5"/><circle cx="248" cy="261.1" r="1.6" fill="#fff" fill-opacity="0.6"/><circle cx="37.4" cy="298.3" r="1.1" fill="#fff" fill-opacity="0.4"/><circle cx="10.4" cy="195.5" r="0.9" fill="#fff" fill-opacity="0.4"/><circle cx="255.1" cy="313.3" r="0.7" fill="#fff" fill-opacity="0.5"/><circle cx="187.5" cy="19.8" r="1.6" fill="#fff" fill-opacity="0.4"/><circle cx="101.6" cy="193.4" r="1.5" fill="#fff" fill-opacity="0.4"/><circle cx="112.3" cy="9.1" r="1.6" fill="#fff" fill-opacity="0.7"/><circle cx="311.2" cy="195.4" r="1.5" fill="#fff" fill-opacity="0.8"/><circle cx="56.1" cy="38.1" r="1.6" fill="#fff" fill-opacity="0.5"/><circle cx="129.6" cy="316.8" r="1.4" fill="#fff" fill-opacity="0.6"/><circle cx="107.4" cy="276.3" r="0.6" fill="#fff" fill-opacity="0.4"/><circle cx="20.5" cy="41.5" r="1.2" fill="#fff" fill-opacity="0.5"/><circle cx="180.1" cy="265.6" r="1.5" fill="#fff" fill-opacity="0.6"/><circle cx="147.3" cy="211.2" r="1.2" fill="#fff" fill-opacity="0.8"/><circle cx="303.3" cy="210.6" r="1.1" fill="#fff" fill-opacity="0.8"/><circle cx="101" cy="213.8" r="0.6" fill="#fff" fill-opacity="0.4"/><circle cx="220.5" cy="233" r="0.6" fill="#fff" fill-opacity="0.4"/><circle cx="151.5" cy="262.7" r="1.1" fill="#fff" fill-opacity="0.4"/><circle cx="242.9" cy="212.3" r="1" fill="#fff" fill-opacity="0.6"/><circle cx="221" cy="136.3" r="0.6" fill="#fff" fill-opacity="0.7"/><circle cx="83.8" cy="88.1" r="1.4" fill="#fff" fill-opacity="0.6"/><circle cx="25.5" cy="29.5" r="1.3" fill="#fff" fill-opacity="0.6"/><circle cx="149.6" cy="93.8" r="1.4" fill="#fff" fill-opacity="0.6"/>
<circle cx="230.4" cy="230.4" r="134.4" fill="url(#pl)"/>
<circle cx="140.8" cy="147.2" r="96" fill="none" stroke="#ffe08a" stroke-width="12.8"/><circle cx="140.8" cy="147.2" r="64" fill="none" stroke="#ffe08a" stroke-width="4.5" stroke-opacity="0.6"/><circle cx="140.8" cy="147.2" r="38.4" fill="#e3b341" fill-opacity="0.25"/><rect x="219.6" y="175" width="19.2" height="19.2" fill="#ffe08a"/><rect x="93.8" y="226" width="19.2" height="19.2" fill="#ffe08a"/><rect x="42.8" y="100.2" width="19.2" height="19.2" fill="#ffe08a"/><rect x="168.6" y="49.2" width="19.2" height="19.2" fill="#ffe08a"/>
</svg>
