<svg xmlns="http://www.w3.org/2000/svg" viewBox="0 0 320 320" width="320" height="320" preserveAspectRatio="xMidYMid slice">
<defs>
<linearGradient id="sky" x1="0" y1="0" x2="1" y2="1"><stop offset="0" stop-color="#05070c"/><stop offset="1" stop-color="#0c1a2b"/></linearGradient>
<radialGradient id="pl" cx="0.35" cy="0.3" r="0.9"><stop offset="0" stop-color="#9cc9ff" stop-opacity="0.85"/><stop offset="0.55" stop-color="#4a90d9" stop-opacity="0.55"/><stop offset="1" stop-color="#0c1a2b"/></radialGradient>
</defs>
<rect width="320" height="320" fill="url(#sky)"/>
<circle cx="205.6" cy="206.5" r="1" fill="#fff" fill-opacity="0.4"/><circle cx="164.1" cy="273" r="0.9" fill="#fff" fill-opacity="0.8"/><circle cx="169.4" cy="275.1" r="0.6" fill="#fff" fill-opacity="0.5"/><circle cx="144.2" cy="159.6" r="1.5" fill="#fff" fill-opacity="0.5"/><circle cx="176.2" cy="90.5" r="1.1" fill="#fff" fill-opacity="0.8"/><circle cx="187.7" cy="1.2" r="0.9" fill="#fff" fill-opacity="0.7"/><circle cx="167.4" cy="197.3" r="0.8" fill="#fff" fill-opacity="0.7"/><circle cx="285" cy="111" r="1.5" fill="#fff" fill-opacity="0.5"/><circle cx="251" cy="96.3" r="1.4" fill="#fff" fill-opacity="0.5"/><circle cx="247.8" cy="202" r="1.3" fill="#fff" fill-opacity="0.5"/><circle cx="193.8" cy="147.2" r="1.1" fill="#fff" fill-opacity="0.4"/><circle cx="62.5" cy="172.8" r="1.2" fill="#fff" fill-opacity="0.8"/><circle cx="85.8" cy="303.9" r="0.6" fill="#fff" fill-opacity="0.7"/><circle cx="215.2" cy="292.2" r="1.6" fill="#fff" fill-opacity="0.7"/><circle cx="9.5" cy="229" r="0.8" fill="#fff" fill-opacity="0.6"/><circle cx="56.8" cy="293" r="1.1" fill="#fff" fill-opacity="0.6"/><circle cx="31" cy="90.2" r="0.9" fill="#fff" fill-opacity="0.7"/><circle cx="14.7" cy="204" r="1" fill="#fff" fill-opacity="0.3"/><circle cx="46.8" cy="84.5" r="1.2" fill="#fff" fill-opacity="0.3"/><circle cx="122.4" cy="170.6" r="1" fill="#fff" fill-opacity="0.8"/><circle cx="98" cy="285.7" r="1.1" fill="#fff" fill-opacity="0.6"/><circle cx="63.2" cy="229.8" r="0.7" fill="#fff" fill-opacity="0.7"/><circle cx="159.3" cy="211.5" r="1" fill="#fff" fill-opacity="0.8"/><circle cx="218.3" cy="166" r="1.3" fill="#fff" fill-opacity="0.8"/><circle cx="76.9" cy="54.5" r="0.7" fill="#fff" fill-opacity="0.5"/><circle cx="170" cy="52" r="0.5" fill="#fff" fill-opacity="0.7"/><circle cx="65.2" cy="259.8" r="1" fill="#fff" fill-opacity="0.6"/><circle cx="226.8" cy="0.7" r="0.7" fill="#fff" fill-opacity="0.4"/><circle cx="145.7" cy="221.4" r="0.7" fill="#fff" fill-opacity="0.6"/><circle cx="289.3" cy="11.9" r="1.3" fill="#fff" fill-opacity="0.6"/><circle cx="87.9" cy="106.4" r="0.8" fill="#fff" fill-opacity="0.4"/><circle cx="113" cy="145.9" r="1.5" fill="#fff" fill-opacity="0.5"/><circle cx="317" cy="156.1" r="0.5" fill="#fff" fill-opacity="0.7"/><circle cx="134.5" cy="18.4" r="0.7" fill="#fff" fill-opacity="0.7"/><circle cx="15.3" cy="207.2" r="0.6" fill="#fff" fill-opacity="0.7"/><circle cx="92.5" cy="147.3" r="1" fill="#fff" fill-opacity="0.7"/><circle cx="267.5" cy="239.8" r="1.6" fill="#fff" fill-opacity="0.6"/><circle cx="16.9" cy="188" r="0.9" fill="#fff" fill-opacity="0.5"/><circle cx="184.8" cy="106.1" r="0.9" fill="#fff" fill-opacity="0.8"/>
<circle cx="230.4" cy="230.4" r="134.4" fill="url(#pl)"/>
<path d="M38.4,192 L38.4,89.6 L243.2,89.6 L243.2,192" fill="none" stroke="#9cc9ff" stroke-width="7"/><line x1="72.5" y1="89.6" x2="72.5" y2="192" stroke="#9cc9ff" stroke-opacity="0.5" stroke-width="3.2"/><line x1="106.7" y1="89.6" x2="106.7" y2="192" stroke="#9cc9ff" stroke-opacity="0.5" stroke-width="3.2"/><line x1="140.8" y1="89.6" x2="140.8" y2="192" stroke="#9cc9ff" stroke-opacity="0.5" stroke-width="3.2"/><line x1="174.9" y1="89.6" x2="174.9" y2="192" stroke="#9cc9ff" stroke-opacity="0.5" stroke-width="3.2"/><line x1="209.1" y1="89.6" x2="209.1" y2="192" stroke="#9cc9ff" stroke-opacity="0.5" stroke-width="3.2"/><path d="M70.4,166.4 L204.8,140.8 L224,166.4 L204.8,192 L70.4,185.6 Z" fill="#4a90d9" stroke="#9cc9ff" stroke-width="3.8"/>
</svg>
