<svg xmlns="http://www.w3.org/2000/svg" viewBox="0 0 320 320" width="320" height="320" preserveAspectRatio="xMidYMid slice">
<defs>
<linearGradient id="sky" x1="0" y1="0" x2="1" y2="1"><stop offset="0" stop-color="#05070c"/><stop offset="1" stop-color="#0c1a2b"/></linearGradient>
<radialGradient id="pl" cx="0.35" cy="0.3" r="0.9"><stop offset="0" stop-color="#9cc9ff" stop-opacity="0.85"/><stop offset="0.55" stop-color="#4a90d9" stop-opacity="0.55"/><stop offset="1" stop-color="#0c1a2b"/></radialGradient>
</defs>
<rect width="320" height="320" fill="url(#sky)"/>
<circle cx="27.7" cy="225.8" r="1.5" fill="#fff" fill-opacity="0.3"/><circle cx="39.8" cy="163.6" r="1.5" fill="#fff" fill-opacity="0.8"/><circle cx="264.4" cy="270.5" r="1.1" fill="#fff" fill-opacity="0.6"/><circle cx="242" cy="29.2" r="1.5" fill="#fff" fill-opacity="0.3"/><circle cx="309.1" cy="253.3" r="1.7" fill="#fff" fill-opacity="0.5"/><circle cx="88.2" cy="249.6" r="1.2" fill="#fff" fill-opacity="0.8"/><circle cx="7.7" cy="21.1" r="1.6" fill="#fff" fill-opacity="0.4"/><circle cx="172.4" cy="290.3" r="1" fill="#fff" fill-opacity="0.6"/><circle cx="174.9" cy="150.1" r="1.5" fill="#fff" fill-opacity="0.6"/><circle cx="248.4" cy="147" r="0.5" fill="#fff" fill-opacity="0.3"/><circle cx="156.1" cy="128.1" r="1.7" fill="#fff" fill-opacity="0.5"/><circle cx="239.7" cy="302.5" r="1.4" fill="#fff" fill-opacity="0.6"/><circle cx="288.6" cy="213.5" r="1.7" fill="#fff" fill-opacity="0.7"/><circle cx="96.2" cy="271.8" r="0.5" fill="#fff" fill-opacity="0.5"/><circle cx="26.7" cy="281.6" r="1.3" fill="#fff" fill-opacity="0.4"/><circle cx="228.7" cy="123.2" r="1.3" fill="#fff" fill-opacity="0.3"/><circle cx="89.5" cy="219" r="1.6" fill="#fff" fill-opacity="0.8"/><circle cx="238.7" cy="250.9" r="1" fill="#fff" fill-opacity="0.5"/><circle cx="56.3" cy="188.7" r="1.3" fill="#fff" fill-opacity="0.3"/><circle cx="242.9" cy="299.7" r="1.5" fill="#fff" fill-opacity="0.4"/><circle cx="159.4" cy="197.2" r="0.7" fill="#fff" fill-opacity="0.3"/><circle cx="319" cy="26" r="1.5" fill="#fff" fill-opacity="0.4"/><circle cx="295.8" cy="301.7" r="1.2" fill="#fff" fill-opacity="0.5"/><circle cx="139" cy="71.2" r="1.4" fill="#fff" fill-opacity="0.4"/><circle cx="45.9" cy="217.3" r="1.5" fill="#fff" fill-opacity="0.8"/><circle cx="112.7" cy="306.5" r="0.9" fill="#fff" fill-opacity="0.3"/><circle cx="165.8" cy="200.8" r="1.6" fill="#fff" fill-opacity="0.6"/><circle cx="19.5" cy="100.4" r="1.2" fill="#fff" fill-opacity="0.4"/><circle cx="22" cy="178.9" r="0.9" fill="#fff" fill-opacity="0.7"/><circle cx="190.1" cy="102.1" r="1.3" fill="#fff" fill-opacity="0.4"/><circle cx="179.8" cy="98" r="0.5" fill="#fff" fill-opacity="0.7"/><circle cx="204.8" cy="48.6" r="1.2" fill="#fff" fill-opacity="0.3"/><circle cx="106.4" cy="290.7" r="1.3" fill="#fff" fill-opacity="0.3"/><circle cx="281.3" cy="103.3" r="1.3" fill="#fff" fill-opacity="0.5"/><circle cx="51.2" cy="215.9" r="1" fill="#fff" fill-opacity="0.8"/><circle cx="41.4" cy="46.7" r="1.3" fill="#fff" fill-opacity="0.6"/><circle cx="268.2" cy="258.1" r="1.3" fill="#fff" fill-opacity="0.8"/><circle cx="227.2" cy="202.9" r="0.9" fill="#fff" fill-opacity="0.6"/><circle cx="112.4" cy="270.5" r="0.9" fill="#fff" fill-opacity="0.3"/>
<circle cx="230.4" cy="230.4" r="134.4" fill="url(#pl)"/>
<ellipse cx="140.8" cy="198.4" rx="83.2" ry="28.8" fill="#2b2f36" stroke="#9cc9ff" stroke-opacity="0.5"/><path d="M89.6,179.2 a32,32 0 0 1 64,0 Z" fill="#4a90d9" stroke="#9cc9ff" stroke-width="3.8"/><path d="M160,179.2 a22.4,22.4 0 0 1 44.8,0 Z" fill="#4a90d9" stroke="#9cc9ff" stroke-width="3.8"/><line x1="121.6" y1="147.2" x2="121.6" y2="89.6" stroke="#9cc9ff" stroke-width="3.8"/>
</svg>
