<svg xmlns="http://www.w3.org/2000/svg" viewBox="0 0 900 260" width="900" height="260" preserveAspectRatio="xMidYMid slice">
<defs>
<linearGradient id="sky" x1="0" y1="0" x2="1" y2="0"><stop offset="0" stop-color="#2a2108"/><stop offset="1" stop-color="#05070c"/></linearGradient>
<radialGradient id="pl" cx="0.5" cy="0.5" r="0.75"><stop offset="0" stop-color="#ffe08a" stop-opacity="0.5"/><stop offset="0.6" stop-color="#e3b341" stop-opacity="0.25"/><stop offset="1" stop-color="#2a2108" stop-opacity="0"/></radialGradient>
</defs>
<rect width="900" height="260" fill="url(#sky)"/>
<circle cx="128.1" cy="166.4" r="1.4" fill="#fff" fill-opacity="0.8"/><circle cx="331.6" cy="121.5" r="0.6" fill="#fff" fill-opacity="0.4"/><circle cx="758.8" cy="210.8" r="1.1" fill="#fff" fill-opacity="0.5"/><circle cx="483" cy="258.1" r="0.8" fill="#fff" fill-opacity="0.3"/><circle cx="391.5" cy="176.7" r="1" fill="#fff" fill-opacity="0.6"/><circle cx="872.5" cy="152" r="1.1" fill="#fff" fill-opacity="0.6"/><circle cx="870.1" cy="119.5" r="0.9" fill="#fff" fill-opacity="0.8"/><circle cx="831.7" cy="211.7" r="0.9" fill="#fff" fill-opacity="0.5"/><circle cx="846.5" cy="174.8" r="1.4" fill="#fff" fill-opacity="0.4"/><circle cx="840.5" cy="37.2" r="1.5" fill="#fff" fill-opacity="0.5"/><circle cx="840.8" cy="104.9" r="0.9" fill="#fff" fill-opacity="0.5"/><circle cx="679.4" cy="179.2" r="1.4" fill="#fff" fill-opacity="0.7"/><circle cx="255.9" cy="197.9" r="1.6" fill="#fff" fill-opacity="0.4"/><circle cx="346.2" cy="197.2" r="1.6" fill="#fff" fill-opacity="0.4"/><circle cx="96.4" cy="213.7" r="0.8" fill="#fff" fill-opacity="0.5"/><circle cx="844.6" cy="222.7" r="0.7" fill="#fff" fill-opacity="0.5"/><circle cx="898.7" cy="0" r="1.6" fill="#fff" fill-opacity="0.4"/><circle cx="891.3" cy="137.1" r="0.5" fill="#fff" fill-opacity="0.8"/><circle cx="226.9" cy="30.1" r="0.8" fill="#fff" fill-opacity="0.4"/><circle cx="497.7" cy="169.2" r="1.7" fill="#fff" fill-opacity="0.3"/><circle cx="345.4" cy="91.4" r="0.7" fill="#fff" fill-opacity="0.6"/><circle cx="386.8" cy="109.4" r="1.1" fill="#fff" fill-opacity="0.6"/><circle cx="138.9" cy="195.3" r="1.7" fill="#fff" fill-opacity="0.3"/><circle cx="365.7" cy="131.3" r="1.4" fill="#fff" fill-opacity="0.5"/><circle cx="437.6" cy="66.1" r="1" fill="#fff" fill-opacity="0.7"/><circle cx="705.1" cy="145.7" r="0.8" fill="#fff" fill-opacity="0.7"/><circle cx="450.9" cy="92.7" r="1" fill="#fff" fill-opacity="0.6"/><circle cx="189.2" cy="214.9" r="0.8" fill="#fff" fill-opacity="0.5"/><circle cx="176.4" cy="255.3" r="1" fill="#fff" fill-opacity="0.6"/><circle cx="211" cy="89.2" r="0.7" fill="#fff" fill-opacity="0.5"/><circle cx="424.6" cy="207" r="0.6" fill="#fff" fill-opacity="0.6"/><circle cx="374.8" cy="122" r="1.6" fill="#fff" fill-opacity="0.7"/><circle cx="418.7" cy="129.6" r="0.8" fill="#fff" fill-opacity="0.8"/><circle cx="602.8" cy="240.9" r="0.7" fill="#fff" fill-opacity="0.6"/><circle cx="246.4" cy="81.2" r="1.5" fill="#fff" fill-opacity="0.3"/><circle cx="608.9" cy="38.4" r="0.5" fill="#fff" fill-opacity="0.5"/><circle cx="374.6" cy="98" r="1.6" fill="#fff" fill-opacity="0.6"/><circle cx="829" cy="128" r="1" fill="#fff" fill-opacity="0.6"/><circle cx="457.8" cy="93.5" r="0.9" fill="#fff" fill-opacity="0.5"/><circle cx="113.8" cy="215.8" r="1.5" fill="#fff" fill-opacity="0.6"/><circle cx="616" cy="78.7" r="1.6" fill="#fff" fill-opacity="0.5"/><circle cx="878.6" cy="26.2" r="1.5" fill="#fff" fill-opacity="0.7"/><circle cx="261.7" cy="27.5" r="0.7" fill="#fff" fill-opacity="0.5"/><circle cx="770.3" cy="199.6" r="1.7" fill="#fff" fill-opacity="0.4"/><circle cx="473.6" cy="45.1" r="1.5" fill="#fff" fill-opacity="0.4"/><circle cx="303.4" cy="64.6" r="1.3" fill="#fff" fill-opacity="0.3"/><circle cx="198.4" cy="96" r="1" fill="#fff" fill-opacity="0.5"/><circle cx="392" cy="69.7" r="1.1" fill="#fff" fill-opacity="0.8"/><circle cx="784.1" cy="161.1" r="0.7" fill="#fff" fill-opacity="0.3"/><circle cx="284.5" cy="100.3" r="1.6" fill="#fff" fill-opacity="0.4"/><circle cx="378" cy="51.6" r="0.7" fill="#fff" fill-opacity="0.8"/><circle cx="264.8" cy="197.1" r="0.8" fill="#fff" fill-opacity="0.7"/><circle cx="217.9" cy="40.3" r="0.6" fill="#fff" fill-opacity="0.4"/><circle cx="171.1" cy="143.8" r="0.6" fill="#fff" fill-opacity="0.4"/><circle cx="89.5" cy="124.6" r="1.5" fill="#fff" fill-opacity="0.6"/><circle cx="727.6" cy="157.3" r="0.9" fill="#fff" fill-opacity="0.5"/><circle cx="233.4" cy="169.5" r="0.5" fill="#fff" fill-opacity="0.8"/><circle cx="369.5" cy="8.3" r="1.7" fill="#fff" fill-opacity="0.4"/><circle cx="558.5" cy="123.8" r="1.2" fill="#fff" fill-opacity="0.6"/><circle cx="859.7" cy="116.1" r="1" fill="#fff" fill-opacity="0.5"/><circle cx="542" cy="239.3" r="1.5" fill="#fff" fill-opacity="0.8"/><circle cx="355.1" cy="30.1" r="1.6" fill="#fff" fill-opacity="0.3"/><circle cx="779.9" cy="143.9" r="1.1" fill="#fff" fill-opacity="0.8"/><circle cx="418" cy="131.4" r="1.6" fill="#fff" fill-opacity="0.4"/><circle cx="517.7" cy="49.3" r="1.1" fill="#fff" fill-opacity="0.3"/><circle cx="89.2" cy="19.1" r="1.2" fill="#fff" fill-opacity="0.3"/><circle cx="247.5" cy="29.5" r="1.1" fill="#fff" fill-opacity="0.5"/><circle cx="605.6" cy="219.2" r="1.5" fill="#fff" fill-opacity="0.5"/><circle cx="115.5" cy="79.8" r="1.5" fill="#fff" fill-opacity="0.7"/><circle cx="184.2" cy="77.5" r="1.3" fill="#fff" fill-opacity="0.4"/><circle cx="553.2" cy="242.4" r="1.7" fill="#fff" fill-opacity="0.8"/><circle cx="311.1" cy="165.4" r="0.7" fill="#fff" fill-opacity="0.7"/><circle cx="586.3" cy="244.8" r="0.8" fill="#fff" fill-opacity="0.3"/><circle cx="831.8" cy="58.9" r="1.2" fill="#fff" fill-opacity="0.6"/><circle cx="337.2" cy="219.2" r="1.5" fill="#fff" fill-opacity="0.7"/><circle cx="370.5" cy="129.3" r="0.6" fill="#fff" fill-opacity="0.6"/><circle cx="285.7" cy="238.5" r="1.2" fill="#fff" fill-opacity="0.5"/><circle cx="507.8" cy="118.3" r="1.4" fill="#fff" fill-opacity="0.8"/><circle cx="301.2" cy="251" r="1.3" fill="#fff" fill-opacity="0.6"/><circle cx="673" cy="176.4" r="0.8" fill="#fff" fill-opacity="0.6"/><circle cx="704.5" cy="12.9" r="0.7" fill="#fff" fill-opacity="0.6"/><circle cx="799.6" cy="104.2" r="0.8" fill="#fff" fill-opacity="0.6"/><circle cx="251.9" cy="41.9" r="0.6" fill="#fff" fill-opacity="0.8"/><circle cx="89.3" cy="156.2" r="1.1" fill="#fff" fill-opacity="0.7"/><circle cx="668.2" cy="189.6" r="1.5" fill="#fff" fill-opacity="0.3"/><circle cx="688.2" cy="245.5" r="1.5" fill="#fff" fill-opacity="0.6"/><circle cx="489.2" cy="180.1" r="1.2" fill="#fff" fill-opacity="0.5"/><circle cx="259.9" cy="30.3" r="1" fill="#fff" fill-opacity="0.6"/><circle cx="105.3" cy="26" r="1.1" fill="#fff" fill-opacity="0.7"/><circle cx="790.7" cy="154.9" r="0.8" fill="#fff" fill-opacity="0.6"/>
<circle cx="702" cy="130" r="109.2" fill="url(#pl)"/>
<circle cx="702" cy="130" r="33.8" fill="#ffe08a"/><line x1="743.6" y1="130" x2="790.4" y2="130" stroke="#e3b341" stroke-width="5.2" stroke-linecap="round"/><line x1="738" y1="150.8" x2="751.5" y2="158.6" stroke="#e3b341" stroke-width="5.2" stroke-linecap="round"/><line x1="722.8" y1="166" x2="746.2" y2="206.6" stroke="#e3b341" stroke-width="5.2" stroke-linecap="round"/><line x1="702" y1="171.6" x2="702" y2="187.2" stroke="#e3b341" stroke-width="5.2" stroke-linecap="round"/><line x1="681.2" y1="166" x2="657.8" y2="206.6" stroke="#e3b341" stroke-width="5.2" stroke-linecap="round"/><line x1="666" y1="150.8" x2="652.5" y2="158.6" stroke="#e3b341" stroke-width="5.2" stroke-linecap="round"/><line x1="660.4" y1="130" x2="613.6" y2="130" stroke="#e3b341" stroke-width="5.2" stroke-linecap="round"/><line x1="666" y1="109.2" x2="652.5" y2="101.4" stroke="#e3b341" stroke-width="5.2" stroke-linecap="round"/><line x1="681.2" y1="94" x2="657.8" y2="53.4" stroke="#e3b341" stroke-width="5.2" stroke-linecap="round"/><line x1="702" y1="88.4" x2="702" y2="72.8" stroke="#e3b341" stroke-width="5.2" stroke-linecap="round"/><line x1="722.8" y1="94" x2="746.2" y2="53.4" stroke="#e3b341" stroke-width="5.2" stroke-linecap="round"/><line x1="738" y1="109.2" x2="751.5" y2="101.4" stroke="#e3b341" stroke-width="5.2" stroke-linecap="round"/>
</svg>
